<?xml version="1.0" encoding="UTF-8" standalone="no"?>
<!-- Created with Inkscape (http://www.inkscape.org/) -->

<svg
   width="102.3716mm"
   height="144.49777mm"
   viewBox="0 0 362.73401 511.99998"
   id="svg3476"
   version="1.1"
   inkscape:version="1.3 (0e150ed6c4, 2023-07-21)"
   sodipodi:docname="logo_css3.svg"
   xmlns:inkscape="http://www.inkscape.org/namespaces/inkscape"
   xmlns:sodipodi="http://sodipodi.sourceforge.net/DTD/sodipodi-0.dtd"
   xmlns="http://www.w3.org/2000/svg"
   xmlns:svg="http://www.w3.org/2000/svg"
   xmlns:rdf="http://www.w3.org/1999/02/22-rdf-syntax-ns#"
   xmlns:cc="http://creativecommons.org/ns#"
   xmlns:dc="http://purl.org/dc/elements/1.1/">
  <defs
     id="defs3478" />
  <sodipodi:namedview
     id="base"
     pagecolor="#ffffff"
     bordercolor="#666666"
     borderopacity="1.0"
     inkscape:pageopacity="0.0"
     inkscape:pageshadow="2"
     inkscape:zoom="0.7"
     inkscape:cx="456.42857"
     inkscape:cy="28.571429"
     inkscape:document-units="px"
     inkscape:current-layer="layer1"
     showgrid="false"
     fit-margin-top="0"
     fit-margin-left="0"
     fit-margin-right="0"
     fit-margin-bottom="0"
     inkscape:window-width="1350"
     inkscape:window-height="1040"
     inkscape:window-x="10"
     inkscape:window-y="0"
     inkscape:window-maximized="0"
     inkscape:showpageshadow="2"
     inkscape:pagecheckerboard="0"
     inkscape:deskcolor="#d1d1d1" />
  <metadata
     id="metadata3481">
    <rdf:RDF>
      <cc:Work
         rdf:about="">
        <dc:format>image/svg+xml</dc:format>
        <dc:type
           rdf:resource="http://purl.org/dc/dcmitype/StillImage" />
        <dc:title />
      </cc:Work>
    </rdf:RDF>
  </metadata>
  <g
     inkscape:label="Calque 1"
     inkscape:groupmode="layer"
     id="layer1"
     transform="translate(-193.633,-276.3622)">
    <g
       id="g3013"
       transform="translate(119,276.3622)">
      <polygon
         id="polygon2989"
         points="437.367,100.62 404.321,470.819 255.778,512 107.644,470.877 74.633,100.62 "
         style="fill:#264de4" />
      <polygon
         id="polygon2991"
         points="376.03,447.246 404.27,130.894 256,130.894 256,480.523 "
         style="fill:#2965f1" />
      <polygon
         id="polygon2993"
         points="150.31,268.217 154.38,313.627 256,313.627 256,268.217 "
         style="fill:#ebebeb" />
      <polygon
         id="polygon2995"
         points="256,176.305 255.843,176.305 142.132,176.305 146.26,221.716 256,221.716 "
         style="fill:#ebebeb" />
      <polygon
         id="polygon2997"
         points="256,433.399 256,386.153 255.801,386.206 205.227,372.55 201.994,336.333 177.419,336.333 156.409,336.333 162.771,407.634 255.791,433.457 "
         style="fill:#ebebeb" />
      <path
         id="path2999"
         d="m 160,0 55,0 0,23 -32,0 0,23 32,0 0,23 -55,0 z"
         inkscape:connector-curvature="0" />
      <path
         id="path3001"
         d="m 226,0 55,0 0,20 -32,0 0,4 32,0 0,46 -55,0 0,-21 32,0 0,-4 -32,0 z"
         inkscape:connector-curvature="0" />
      <path
         id="path3003"
         d="m 292,0 55,0 0,20 -32,0 0,4 32,0 0,46 -55,0 0,-21 32,0 0,-4 -32,0 z"
         inkscape:connector-curvature="0" />
      <polygon
         id="polygon3005"
         points="311.761,313.627 306.49,372.521 255.843,386.191 255.843,433.435 348.937,407.634 349.62,399.962 360.291,280.411 361.399,268.217 369.597,176.305 255.843,176.305 255.843,221.716 319.831,221.716 315.699,268.217 255.843,268.217 255.843,313.627 "
         style="fill:#ffffff" />
    </g>
    <path
       style="fill:#ffffff;fill-opacity:0;stroke:#00ffff;stroke-width:0.357143"
       d="M 91.071429,36.785714 V 0.17857143 h 29.285711 29.28572 V 12.321429 24.464286 H 132.5 115.35714 V 36.785714 49.107143 H 132.5 149.64286 V 61.25 73.392857 H 120.35714 91.071429 Z"
       id="path1"
       transform="matrix(0.93750003,0,0,0.93750003,193.633,276.3622)" />
    <path
       style="fill:#ffffff;fill-opacity:1;stroke:#00ffff;stroke-width:0.357143"
       d="M 91.428572,36.785714 V 0.53571429 h 28.928568 28.92857 V 12.321429 24.107143 H 132.14286 115 v 12.678571 12.678572 h 17.14286 17.14285 V 61.25 73.035714 H 120.35714 91.428572 Z"
       id="path2"
       transform="matrix(0.93750003,0,0,0.93750003,193.633,276.3622)" />
    <path
       style="fill:#ffffff;fill-opacity:1;stroke:#00ffff;stroke-width:0.357143"
       d="M 161.78571,63.392857 V 52.321429 H 178.75 195.71429 V 50 47.678572 H 178.75 161.78571 V 23.928571 0.17857143 H 190.89286 220 V 10.714286 21.25 h -17.14286 -17.14285 v 2.321429 2.321428 H 202.85714 220 v 24.285715 24.285714 h -29.10714 -29.10715 z"
       id="path3"
       transform="matrix(0.93750003,0,0,0.93750003,193.633,276.3622)" />
    <path
       style="fill:#ffffff;fill-opacity:1;stroke:#00ffff;stroke-width:0.357143"
       d="M 232.14286,63.392857 V 52.321429 h 16.96428 16.96429 V 50 47.678572 H 249.10714 232.14286 V 23.928571 0.17857143 H 261.25 290.35714 V 10.714286 21.25 h -17.14285 -17.14286 v 2.321429 2.321428 h 17.14286 17.14285 V 50.178572 74.464286 H 261.25 232.14286 Z"
       id="path4"
       transform="matrix(0.93750003,0,0,0.93750003,193.633,276.3622)" />
    <path
       style="fill:#ffffff;fill-opacity:1;stroke:#00ffff;stroke-width:0.357143"
       d="M 232.5,63.392857 V 52.678572 h 16.96429 16.96428 V 50 47.321429 H 249.46429 232.5 V 23.928571 0.53571429 H 261.25 290 V 10.714286 20.892857 H 272.85714 255.71429 V 23.571429 26.25 H 272.85714 290 V 50.178572 74.107143 H 261.25 232.5 Z"
       id="path5"
       transform="matrix(0.93750003,0,0,0.93750003,193.633,276.3622)" />
    <path
       style="fill:#ffffff;fill-opacity:1;stroke:#00ffff;stroke-width:0.357143"
       d="M 162.14286,63.392857 V 52.678572 h 16.96428 16.96429 V 50 47.321429 H 179.10714 162.14286 V 23.928571 0.53571429 h 28.75 28.75 V 10.714286 20.892857 H 202.5 185.35714 V 23.571429 26.25 H 202.5 219.64286 v 23.928572 23.928571 h -28.75 -28.75 z"
       id="path6"
       transform="matrix(0.93750003,0,0,0.93750003,193.633,276.3622)" />
  </g>
</svg>
